<svg width="207" height="39" viewBox="0 0 207 39" fill="none" xmlns="http://www.w3.org/2000/svg">
<g clip-path="url(#clip0_3_9)">
<path d="M14.3921 0.676388C15.0834 0.704883 15.5757 0.916848 15.7815 1.27629C15.9852 1.63073 15.8628 2.06066 15.4627 2.3971C14.8279 2.93151 14.6524 3.6239 15.0048 4.2043C15.3605 4.7912 16.1943 5.14165 17.234 5.14165H21.835C22.0192 5.14165 22.0192 5.22213 22.0192 5.26513V8.4151C21.3858 8.09216 20.6636 7.91769 19.9373 7.91769C19.4612 7.91769 18.9958 7.99067 18.556 8.13515C17.2273 8.56958 16.4344 9.54842 16.4344 10.7537V10.7812C16.4344 11.998 17.2178 12.9803 18.5285 13.4098C18.9703 13.5543 19.4309 13.6277 19.8983 13.6277C20.6474 13.6277 21.373 13.4413 22.0199 13.0858V16.2808C22.0199 16.3718 21.9507 16.4658 21.8357 16.4658H17.2353C16.1009 16.4658 15.1426 16.8842 14.7331 17.5581C14.3841 18.1325 14.5206 18.7874 15.0693 19.2498C15.3114 19.4688 15.4667 19.9042 15.3127 20.1607C15.2085 20.3351 14.912 20.4326 14.4332 20.4521C14.2213 20.4431 13.8918 20.4086 13.7984 20.2821C13.6417 20.0717 13.8031 19.5358 14.0519 19.1838C14.5192 18.7454 14.6114 18.181 14.294 17.6586C13.8609 16.9452 12.758 16.4658 11.5503 16.4658H7.01855C6.89953 16.4658 6.78722 16.3758 6.78722 16.2808V13.0423C7.46036 13.4213 8.25724 13.6272 9.06487 13.6272C9.54904 13.6272 10.0178 13.5543 10.4582 13.4098C11.8206 12.9639 12.6673 11.96 12.6673 10.7907V10.7637C12.6673 9.58641 11.826 8.57908 10.4703 8.13515C10.0278 7.99067 9.55846 7.91719 9.07294 7.91719C8.25925 7.91719 7.45835 8.12665 6.78655 8.51109V5.26413C6.78655 5.14415 6.99434 5.14065 7.01788 5.14065H11.5496C12.5886 5.14065 13.4224 4.79021 13.7782 4.2028C14.1312 3.6214 13.9564 2.92851 13.3216 2.3936C12.9215 2.05666 12.7991 1.62723 13.0015 1.27329C13.2086 0.916348 13.7008 0.704383 14.3921 0.676388ZM14.3928 0C12.0412 0.072488 11.3492 1.75271 12.6417 2.84153C13.4265 3.50242 13.0842 4.46626 11.5503 4.46626H7.01855C6.39181 4.46626 5.87872 4.7992 5.87872 5.26513V8.72955C5.87872 8.93252 6.00044 9.27496 6.26337 9.36545C6.33129 9.38894 6.40459 9.39994 6.48058 9.39994C6.69577 9.39994 6.93315 9.31196 7.13758 9.17348C7.70043 8.79204 8.39038 8.59257 9.07361 8.59257C9.42464 8.59257 9.77432 8.64507 10.1052 8.75305C11.0816 9.07299 11.7588 9.82437 11.7588 10.7632V10.7792V10.7902C11.7588 11.7261 11.0722 12.4704 10.0917 12.7914C9.76221 12.8994 9.41455 12.9514 9.06487 12.9514C8.37223 12.9514 7.67354 12.7459 7.1053 12.3604C6.90356 12.2235 6.67559 12.139 6.46982 12.139C6.39652 12.139 6.32591 12.1495 6.26068 12.1725C6.00246 12.2625 5.87872 12.5889 5.87872 12.7919V16.2798C5.87872 16.7452 6.39181 17.1402 7.01855 17.1402H11.5503C13.0842 17.1402 14.0815 18.14 13.2974 18.8009C12.8939 19.3263 12.0809 21.0535 14.4325 21.127C16.7828 21.054 16.4768 19.4573 15.7707 18.8194C14.9859 18.158 15.7008 17.1402 17.2347 17.1402H21.835C22.4617 17.1402 22.9277 16.7452 22.9277 16.2798V12.8149C22.9277 12.6119 22.8652 12.2695 22.6036 12.179C22.5357 12.1555 22.4644 12.1445 22.3911 12.1445C22.1847 12.1445 21.9634 12.232 21.759 12.3704C21.1968 12.7519 20.5506 12.9519 19.8969 12.9519C19.5607 12.9519 19.2231 12.8994 18.8936 12.7914C17.9165 12.4714 17.3416 11.7201 17.3416 10.7812V10.7647V10.7537C17.3416 9.81787 17.9401 9.07399 18.9205 8.75305C19.2494 8.64507 19.593 8.59307 19.9359 8.59307C20.6158 8.59307 21.295 8.79854 21.8632 9.18348C22.0656 9.31995 22.2492 9.40444 22.4321 9.40444C22.4974 9.40444 22.5619 9.39394 22.6278 9.37145C22.8861 9.28246 22.9271 8.95551 22.9271 8.75205V5.26463C22.9271 4.7982 22.4611 4.46576 21.8343 4.46576H17.234C15.7001 4.46576 15.3578 3.50492 16.1432 2.84353C17.4364 1.75621 16.7431 0.0729879 14.3928 0Z" fill="#FEFCB2"/>
<path d="M48.8398 18.8309C49.1519 18.8309 49.4807 18.9059 49.8183 19.0543C50.3939 19.3733 50.6562 19.7692 50.556 20.1716C50.4571 20.5676 50.018 20.8885 49.4108 21.009C48.507 21.189 47.8628 21.6804 47.7283 22.2908C47.5911 22.9167 48.004 23.5186 48.8614 23.942L52.6911 25.8352C52.8955 25.9372 52.8007 26.0427 52.7697 26.0772L50.3596 28.7727C49.9057 27.8649 48.9152 27.221 47.6872 27.061C47.4976 27.0365 47.3046 27.024 47.113 27.024C45.92 27.024 44.8071 27.4974 44.0411 28.3393L44.0263 28.3538L44.0102 28.3723C43.1192 29.3701 43.0398 30.4919 43.7977 31.3743C44.4271 32.1042 45.4822 32.5226 46.692 32.5226C46.7982 32.5226 46.9058 32.5196 47.0141 32.5131L44.5657 35.2516C44.4897 35.3371 44.3834 35.3676 44.3081 35.3676C44.2677 35.3676 44.2308 35.3586 44.1924 35.3396L40.3614 33.4484C39.8772 33.209 39.387 33.0865 38.9028 33.0865C38.3346 33.0865 37.8208 33.2585 37.4537 33.5709C37.0421 33.9214 36.8599 34.4193 36.9547 34.9382C37.0213 35.2956 36.9009 35.6351 36.6265 35.869C36.4618 36.009 36.1672 36.1765 35.7005 36.1765C35.3852 36.1765 35.0523 36.1 34.7093 35.9495C34.1384 35.6331 33.8687 35.2292 33.9669 34.8362C34.0644 34.4478 34.4995 34.1318 35.1034 34.0119C35.9998 33.8344 36.638 33.3525 36.7704 32.7536C36.9076 32.1337 36.4907 31.5333 35.6272 31.1068L31.8527 29.2401C31.774 29.2016 31.7471 29.1407 31.7377 29.1077C31.7209 29.0452 31.737 28.9807 31.7814 28.9307L34.2621 26.1562C34.6818 27.151 35.7261 27.8614 37.0347 28.0293C37.2364 28.0563 37.4422 28.0693 37.6473 28.0693C38.8557 28.0693 40.0023 27.6029 40.74 26.806L40.7561 26.7915L40.7877 26.7571C41.6485 25.7922 41.6983 24.6259 40.9142 23.7121C40.2713 22.9677 39.1436 22.5238 37.8968 22.5238C37.765 22.5238 37.6312 22.5288 37.498 22.5383L39.9862 19.7572C40.0124 19.7272 40.0588 19.6877 40.157 19.6877C40.2202 19.6877 40.2894 19.7052 40.3533 19.7367L44.1259 21.6019C44.6033 21.8384 45.0909 21.9578 45.573 21.9578C46.15 21.9578 46.6745 21.7824 47.0484 21.4634C47.466 21.1075 47.6509 20.6061 47.5554 20.0882C47.4889 19.7292 47.6126 19.3863 47.893 19.1473C48.1324 18.9433 48.4686 18.8309 48.8398 18.8309ZM48.8398 18.2005C47.4922 18.2005 46.5165 19.0963 46.7155 20.1736C46.8319 20.806 46.3383 21.328 45.573 21.328C45.2798 21.328 44.9483 21.2525 44.5952 21.0775L40.8227 19.2123C40.6149 19.1093 40.3829 19.0578 40.157 19.0578C39.8154 19.0578 39.4885 19.1748 39.2794 19.4088L36.6991 22.2933C36.5465 22.4633 36.3939 22.7992 36.5458 22.9807C36.6642 23.1272 36.911 23.1946 37.1941 23.1946C37.2654 23.1946 37.34 23.1901 37.4147 23.1821C37.5767 23.1636 37.7374 23.1547 37.8961 23.1547C38.8504 23.1547 39.7078 23.4831 40.2 24.053C40.7743 24.7229 40.7783 25.6267 40.0803 26.4091L40.0662 26.4206L40.0574 26.4306C39.463 27.096 38.5558 27.4404 37.646 27.4404C37.4906 27.4404 37.3353 27.4299 37.1813 27.4099C36.1235 27.2745 35.2937 26.6581 35.0153 25.8232C34.9259 25.5568 34.7228 25.3498 34.4504 25.3183C34.4323 25.3163 34.4134 25.3153 34.3953 25.3153C34.1256 25.3153 33.8136 25.5183 33.6717 25.6777L31.074 28.5828C30.727 28.9712 30.8608 29.5101 31.3833 29.7671L35.1558 31.6327C36.4329 32.2636 36.0294 33.1765 34.8835 33.4039C32.9966 33.7779 32.3342 35.4476 34.2379 36.4759C34.7483 36.7059 35.2453 36.8079 35.6992 36.8079C37.0347 36.8079 37.9916 35.9265 37.7933 34.8532C37.6783 34.2248 38.1517 33.7179 38.9015 33.7179C39.1953 33.7179 39.5302 33.7954 39.8893 33.9739L43.7224 35.866C43.9046 35.9565 44.1064 35.999 44.3068 35.999C44.68 35.999 45.0465 35.853 45.2717 35.6006L47.852 32.7146C48.004 32.5456 48.2064 32.2351 48.0551 32.0527C47.9401 31.9107 47.7141 31.8497 47.4445 31.8497C47.3698 31.8497 47.2905 31.8547 47.2105 31.8632C47.0329 31.8837 46.8594 31.8937 46.6906 31.8937C45.7734 31.8937 44.9947 31.5967 44.5105 31.0353C43.9362 30.3675 44.0169 29.5051 44.7163 28.7222L44.7297 28.7097L44.7385 28.6997C45.341 28.0263 46.2078 27.6554 47.1143 27.6554C47.2562 27.6554 47.3994 27.6649 47.5433 27.6834C48.6004 27.8209 49.3926 28.4188 49.673 29.2526C49.7638 29.5191 49.897 29.6941 50.17 29.7241C50.1861 29.7261 50.2036 29.7271 50.2197 29.7271C50.482 29.7271 50.7382 29.4901 50.8794 29.3316L53.4758 26.4276C53.8235 26.0392 53.6829 25.5712 53.1618 25.3128L49.3307 23.4186C48.0537 22.7877 48.4841 21.8474 49.63 21.6189C51.5169 21.245 52.1934 19.5587 50.2883 18.5304C49.784 18.301 49.2911 18.2005 48.8398 18.2005Z" fill="#FEFCB2"/>
<path d="M39.6412 5.11466C39.7441 5.11466 39.8893 5.15665 39.8893 5.25114V8.67057C39.8893 9.89986 40.9626 10.4603 41.9598 10.4603C42.5187 10.4603 43.0815 10.2928 43.5448 9.98885C43.8488 9.78938 44.2099 9.6794 44.5623 9.6794C45.2798 9.6794 45.772 10.1123 45.8225 10.7842C45.772 11.4556 45.2764 11.888 44.5535 11.888C44.1998 11.888 43.838 11.7786 43.5334 11.5786C43.0694 11.2746 42.5072 11.1072 41.9504 11.1072C40.9572 11.1072 39.8893 11.6671 39.8893 12.8964V16.2658C39.8893 16.3558 39.771 16.4378 39.6412 16.4378H35.2856C36.1161 15.6239 36.3091 14.6011 35.7792 13.7092C35.1794 12.6964 33.8304 12.067 32.2575 12.067H32.2205C30.6375 12.067 29.2832 12.6919 28.6847 13.6992C28.1514 14.5996 28.3485 15.6284 29.1904 16.4383H24.8227C24.662 16.4383 24.6573 16.2838 24.6573 16.2663V12.8969C24.6573 11.6221 23.4845 10.8602 22.3507 10.8602C21.88 10.8602 21.4328 10.9817 21.0495 11.2121C20.8505 11.2906 20.4443 11.3911 20.0771 11.3911C19.7207 11.3911 19.445 11.3481 19.4053 10.8097C19.4511 10.1798 19.8229 10.1768 20.0724 10.1768C20.0731 10.1768 20.0744 10.1768 20.0758 10.1768C20.4382 10.1768 20.8202 10.2978 20.9473 10.3783C21.334 10.6322 21.798 10.7662 22.2889 10.7662C23.5948 10.7662 24.6566 9.82588 24.6566 8.67007V5.25064C24.6566 5.12466 24.742 5.11416 24.822 5.11416H29.0599C28.339 5.89803 28.1877 6.85187 28.682 7.68923C29.2677 8.67607 30.5857 9.26547 32.2064 9.26547H32.2434C33.8795 9.26547 35.2002 8.68357 35.7785 7.70873C36.2876 6.84787 36.1208 5.89903 35.3428 5.11416H39.6412M39.6412 4.43927H34.9803C34.7073 4.43927 34.2466 4.48526 34.1256 4.68023C34.0046 4.8737 34.1303 5.10166 34.3832 5.30813C35.1605 5.94052 35.3757 6.71539 34.9487 7.43777C34.5183 8.16315 33.5069 8.59058 32.2447 8.59058H32.2219H32.2077C30.9482 8.59058 29.9476 8.14665 29.5138 7.41678C29.0835 6.6869 29.3155 5.86503 30.0948 5.22914C30.3443 5.02467 30.464 4.8467 30.3484 4.66123C30.2273 4.46977 29.7882 4.43927 29.5138 4.43927H24.8227C24.196 4.43927 23.7488 4.78471 23.7488 5.25164V8.67107C23.7488 9.51793 23.0259 10.0918 22.2895 10.0918C22.0347 10.0918 21.7778 10.0228 21.5491 9.87287C21.2452 9.6794 20.6568 9.50243 20.0764 9.50193C19.3065 9.50193 18.552 9.81338 18.4962 10.8102C18.5513 11.791 19.3085 12.067 20.0778 12.067C20.679 12.067 21.2869 11.899 21.574 11.7671C21.8148 11.6091 22.0851 11.5356 22.3514 11.5356C23.0662 11.5356 23.7495 12.0655 23.7495 12.8969V16.2663C23.7495 16.7322 24.1966 17.1137 24.8234 17.1137H29.4842C29.7586 17.1137 30.2179 17.0222 30.3403 16.8272C30.4613 16.6342 30.3342 16.3838 30.0821 16.1778C29.3054 15.5444 29.0882 14.6941 29.5165 13.9717C29.9476 13.2463 30.9576 12.7429 32.2205 12.7429H32.2414H32.2568C33.515 12.7429 34.5156 13.2528 34.9474 13.9817C35.3811 14.7116 35.1478 15.5659 34.3697 16.2013C34.1189 16.4053 33.9992 16.6437 34.1162 16.8302C34.2372 17.0212 34.6757 17.1137 34.9487 17.1137H39.6405C40.2672 17.1137 40.7971 16.7322 40.7971 16.2663V12.8969C40.7971 12.1495 41.3317 11.7831 41.9504 11.7831C42.2766 11.7831 42.6256 11.8845 42.9329 12.0855C43.4231 12.4069 43.9994 12.5634 44.5535 12.5634C45.655 12.5634 46.6664 11.947 46.7316 10.7842C46.6657 9.62141 45.6597 9.00401 44.5623 9.00401C44.0095 9.00401 43.4339 9.15999 42.9436 9.48193C42.637 9.6829 42.2866 9.78438 41.9592 9.78438C41.3365 9.78438 40.7965 9.41794 40.7965 8.67007V5.25064C40.7971 4.78471 40.2672 4.43927 39.6412 4.43927Z" fill="#FEFCB2"/>
<path d="M21.9083 18.4099C22.0697 18.4099 22.0744 18.5639 22.0744 18.5814V21.9514C22.0744 23.1802 23.1624 23.7401 24.1731 23.7401C24.7393 23.7401 25.3062 23.5721 25.7702 23.2681C26.0742 23.0692 26.4387 22.9592 26.7964 22.9592C27.3546 22.9592 28.0216 23.2491 28.0822 24.0625C28.0216 24.8779 27.3532 25.1683 26.7937 25.1683C26.4346 25.1683 26.0702 25.0588 25.7669 24.8599C25.3035 24.5559 24.7367 24.388 24.1711 24.388C23.1611 24.388 22.0744 24.9479 22.0744 26.1777V29.5971C22.0744 29.7351 21.9668 29.7351 21.9083 29.7351H17.6704C18.3933 28.9507 18.5439 27.9959 18.049 27.159C17.4633 26.1717 16.1459 25.5828 14.5239 25.5828H14.4876C12.8515 25.5828 11.5301 26.1647 10.9518 27.1405C10.4441 28.0014 10.6122 28.9502 11.3902 29.7351H7.09048C6.96876 29.7351 6.84234 29.6831 6.84234 29.5971V26.1777C6.84234 24.9479 5.76908 24.388 4.77182 24.388C4.213 24.388 3.65014 24.5554 3.18614 24.8594C2.88286 25.0583 2.52175 25.1678 2.16937 25.1678C1.45118 25.1678 0.958936 24.7354 0.908501 24.0625C0.958936 23.3911 1.45387 22.9592 2.17677 22.9592C2.53116 22.9592 2.89362 23.0692 3.1969 23.2681C3.66023 23.5721 4.22241 23.7401 4.77989 23.7401C5.77312 23.7401 6.84234 23.1802 6.84234 21.9514V18.5814C6.84234 18.4914 6.96069 18.4099 7.09048 18.4099H11.4467C10.6162 19.2238 10.4232 20.2466 10.9518 21.1385C11.5509 22.1508 12.9013 22.7797 14.4755 22.7797H14.5125C16.0961 22.7797 17.4512 22.1548 18.0463 21.1485C18.5796 20.2491 18.3839 19.2213 17.5419 18.4094H21.9083M21.9083 17.7346H17.2481C16.9744 17.7346 16.5144 17.8255 16.3927 18.0205C16.2717 18.2135 16.3974 18.4644 16.6503 18.6699C17.4263 19.3038 17.6428 20.1547 17.2145 20.8765C16.7847 21.6019 15.774 22.1048 14.5118 22.1048H14.4896H14.4755C13.2166 22.1048 12.2153 21.5959 11.7836 20.8665C11.3505 20.1362 11.5839 19.2823 12.3633 18.6464C12.6128 18.4429 12.7325 18.204 12.6168 18.0175C12.4958 17.827 12.056 17.7346 11.7829 17.7346H7.09115C6.46441 17.7346 5.93451 18.1155 5.93451 18.5814V21.9514C5.93451 22.6977 5.3999 23.0652 4.78056 23.0652C4.45509 23.0652 4.10608 22.9632 3.79943 22.7622C3.3092 22.4403 2.73223 22.2843 2.17744 22.2843C1.07662 22.2843 0.0652292 22.9007 0 24.063C0.0652292 25.2263 1.07258 25.8437 2.17005 25.8437C2.72214 25.8437 3.2971 25.6877 3.78733 25.3663C4.09464 25.1653 4.445 25.0638 4.77249 25.0638C5.39519 25.0638 5.93451 25.4303 5.93451 26.1782V29.5976C5.93451 30.0645 6.46441 30.411 7.09115 30.411H11.752C12.025 30.411 12.4863 30.363 12.6081 30.17C12.7284 29.9745 12.602 29.7481 12.3492 29.5401C11.5731 28.9082 11.3579 28.1343 11.7836 27.4125C12.214 26.6861 13.2261 26.2581 14.4876 26.2581H14.5098H14.5239C15.7841 26.2581 16.7841 26.7016 17.2171 27.4319C17.6489 28.1623 17.4155 28.9842 16.6375 29.6191C16.3866 29.8231 16.2676 30.001 16.3846 30.1875C16.5037 30.379 16.9441 30.411 17.2171 30.411H21.9083C22.5357 30.411 22.9829 30.0645 22.9829 29.5976V26.1782C22.9829 25.4308 23.5383 25.0638 24.1711 25.0638C24.504 25.0638 24.8584 25.1653 25.1657 25.3663C25.6559 25.6877 26.2356 25.8437 26.7937 25.8437C27.9019 25.8437 28.9261 25.2273 28.992 24.063C28.9261 22.9012 27.9053 22.2843 26.7964 22.2843C26.2389 22.2843 25.6599 22.4403 25.169 22.7622C24.8624 22.9632 24.5073 23.0652 24.1738 23.0652C23.5403 23.0652 22.9835 22.6982 22.9835 21.9514V18.5814C22.9829 18.115 22.5357 17.7346 21.9083 17.7346Z" fill="#FEFCB2"/>
<path d="M37.878 20.943L42.9955 20.2551L42.2678 19.8952L38.344 20.4231L37.878 20.943Z" fill="#FEFCB2"/>
<path d="M50.6972 18.7619L46.8178 19.2838C46.7519 19.4323 46.7122 19.5908 46.6994 19.7572L51.1175 19.1628C51.0099 19.0244 50.868 18.8904 50.6972 18.7619Z" fill="#FEFCB2"/>
<path d="M51.2197 20.6326C51.3165 20.4796 51.3784 20.3176 51.4046 20.1501L46.5965 20.7965C46.3 21.2765 45.5381 21.4954 44.6289 21.061L36.835 22.1088L36.6985 22.2618C36.6205 22.3488 36.5438 22.4798 36.5068 22.6107L51.2197 20.6326Z" fill="#FEFCB2"/>
<path d="M48.552 22.4748C48.556 22.2978 48.6401 22.1298 48.7887 21.9854L39.0413 23.2956C39.3143 23.3836 39.5605 23.5061 39.7777 23.6546L48.552 22.4748Z" fill="#FEFCB2"/>
<path d="M35.0106 25.7797C34.9474 25.6013 34.831 25.4538 34.6791 25.3668L33.8815 25.4743C33.7981 25.5303 33.7222 25.5898 33.6717 25.6462L33.3523 26.0032L35.0106 25.7797Z" fill="#FEFCB2"/>
<path d="M40.5261 24.5799C40.5772 24.7244 40.6014 24.8744 40.6088 25.0268L50.0758 23.7541L49.3475 23.3936L40.5261 24.5799Z" fill="#FEFCB2"/>
<path d="M52.4335 24.9199L51.7059 24.5599L40.2975 26.0937C40.2343 26.1892 40.163 26.2841 40.0803 26.3766L40.0662 26.3881L40.0574 26.3981C39.9882 26.4751 39.9122 26.5451 39.8355 26.6136L52.4335 24.9199Z" fill="#FEFCB2"/>
<path d="M36.2371 27.098C36.0206 26.994 35.8263 26.867 35.6555 26.7186L32.3106 27.168L31.8453 27.6884L36.2371 27.098Z" fill="#FEFCB2"/>
<path d="M53.6419 25.7837L30.9119 28.8402C30.8675 28.9922 30.8796 29.1482 30.9429 29.2936L53.5807 26.2491C53.6688 26.0952 53.687 25.9342 53.6419 25.7837Z" fill="#FEFCB2"/>
<path d="M48.5332 27.9538C48.741 28.0593 48.9266 28.1883 49.088 28.3373L52.1013 27.9314L52.566 27.4114L48.5332 27.9538Z" fill="#FEFCB2"/>
<path d="M44.5092 28.9527C44.5717 28.8642 44.6383 28.7762 44.7163 28.6897L44.7297 28.6773L44.7385 28.6673C44.8131 28.5833 44.8938 28.5068 44.9772 28.4318L32.2178 30.148L32.9454 30.5079L44.5092 28.9527Z" fill="#FEFCB2"/>
<path d="M44.1373 30.029L34.5768 31.3143L35.1558 31.6008C35.2049 31.6253 35.248 31.6508 35.2917 31.6758L44.2052 30.4769C44.1561 30.332 44.138 30.1815 44.1373 30.029Z" fill="#FEFCB2"/>
<path d="M49.6986 29.2811C49.7833 29.4971 49.9084 29.6416 50.131 29.6806L50.4329 29.6401C50.6138 29.5631 50.7772 29.4136 50.8795 29.2986L51.059 29.0982L49.6986 29.2811Z" fill="#FEFCB2"/>
<path d="M45.7848 31.7477C45.4836 31.6707 45.2092 31.5553 44.9711 31.3998L35.9319 32.6151C35.8902 32.81 35.7476 32.9875 35.5257 33.1275L45.7848 31.7477Z" fill="#FEFCB2"/>
<path d="M38.9862 33.6884C39.2586 33.7019 39.5645 33.7799 39.89 33.9414L40.0225 34.0069L47.5749 32.992L47.852 32.6821C47.9018 32.6266 47.9535 32.5536 48.0006 32.4771L38.9862 33.6884Z" fill="#FEFCB2"/>
<path d="M38.4327 33.7634L33.2151 34.4648C33.1438 34.6163 33.1068 34.7752 33.1021 34.9372L37.8437 34.3003C37.9418 34.0559 38.1483 33.8634 38.4327 33.7634Z" fill="#FEFCB2"/>
<path d="M37.8 35.3316L33.5217 35.9065C33.6502 36.043 33.8095 36.175 34.0032 36.3L37.6318 35.8116C37.7152 35.6631 37.7724 35.5021 37.8 35.3316Z" fill="#FEFCB2"/>
<path d="M41.6559 34.8132L42.3848 35.1732L46.0679 34.6778L46.5333 34.1573L41.6559 34.8132Z" fill="#FEFCB2"/>
<path d="M44.8105 35.8726L44.177 35.9575C44.3942 35.978 44.6134 35.9475 44.8105 35.8726Z" fill="#FEFCB2"/>
<path d="M75.8695 10.2531L72.6457 9.0361L70.3475 10.1464L70.0188 12.6435L70.3865 14.0625C71.4203 14.9741 76.0251 20.3782 76.0251 20.3782L79.5399 25.0196C79.5399 25.0196 80.1195 30.7383 80.1001 31.0148C80.0807 31.2913 77.8571 34.7732 77.8571 34.7732L72.0088 35.5201L67.472 33.9717L65.4615 31.1956L66.4208 26.2463L71.27 24.6754L74.3954 26.723L74.8464 29.86L72.6219 31.7075L69.7625 31.1327L69.9874 29.0223L71.7221 28.3019L71.654 29.056L70.5725 30.2451L72.3699 30.049L73.1108 28.1106L71.1241 27.2085L69.3969 28.4402L68.7481 30.4541L69.0563 31.7854L73.4221 32.5982L75.5406 30.5425L76.0467 29.1886L75.6866 25.9141L72.4866 21.0244L68.4723 17.1067L66.3591 11.9888L67.711 7.73424L72.172 6.04832L77.3088 7.28155L79.0153 9.03575L79.0662 12.6077L77.0385 15.0702L73.1885 14.9801L71.1835 12.4686L72.0357 10.6983L73.5228 10.3462L75.4489 11.5272L75.1472 12.6077L73.4211 12.0369L75.2487 13.7992L76.5086 12.7202L75.8695 10.2531ZM92.0837 32.1662L96.0764 32.3704V35.5187H83.5209V6.35555H84.2941V19.485L84.9073 6.35555H88.1721L87.9104 31.5111L86.1196 31.8954L92.0837 32.1662ZM111.641 9.83983L112.464 19.2132L111.986 28.5059L108.792 34.841L101.804 35.5187L97.2682 29.2428L97.2411 13.8992C97.0984 13.4997 99.1899 7.70937 99.1899 7.70937L105.249 5.69946L108.012 6.22687L102.73 8.76979L99.5846 13.9956L99.683 25.084C99.683 25.084 101.863 31.5822 102.085 31.5822C102.307 31.5822 104.941 33.3413 104.941 33.3413L107.614 31.7833L109.759 26.323L110.693 18.9869L109.071 13.0576L105.336 13.5938L103.026 19.5575L103.812 22.4043L106.564 21.9018L105.274 18.3177L107.08 18.0162C107.08 18.0162 107.818 22.3874 107.818 22.5384C107.818 22.6478 105.975 29.3719 105.975 29.3719L104.426 30.528L103.099 24.6994L101.993 19.5579L103.542 11.7352L108.722 7.72745L111.641 9.83983ZM128.29 30.3261C128.29 30.3261 131.935 30.8423 131.797 31.0264C131.661 31.2089 130.429 34.3467 130.429 34.3467L125.618 35.5198L120.653 34.2953L117.413 31.574L116.39 27.5582L115.858 19.3122L117.349 12.0667L119.982 7.84826C119.982 7.84826 124.279 6.29984 124.656 6.31023C125.032 6.32227 130.218 8.00412 130.218 8.00412L129.982 12.1115L127.22 12.0239L127.704 10.1691L123.674 9.27345L121.03 14.5034C120.7 12.7644 120.314 10.8269 120.314 10.8269L119.721 17.2345L119.549 25.1328L121.871 31.2068L119.47 31.1674L123.107 31.7994L125.519 32.8984L127.592 32.0687L128.29 30.3261ZM145.871 27.6142L149.919 27.7316L151.135 35.4503L146.945 35.3948L147.181 33.1083L140.913 35.5202L136.04 31.7697L133.522 25.0823L133.887 18.0604L135.222 11.7791L139.894 6.38761C139.894 6.38761 141.458 6.28309 143.002 6.19144L148.14 6.82499L148.861 11.6824H145.436L144.115 9.81567L142.328 10.2241C142.18 10.2578 138.474 11.0907 138.474 11.0907L140.74 10.9187L139.062 15.9078L137.215 22.2991L139.572 28.8561L141.335 32.297L143.075 31.6144L147.824 29.7815L145.695 29.7895L145.871 27.6142ZM165.235 6.30417L170.103 35.5187H166.588L165.323 28.6463L164.83 25.6017L164.512 26.6613C163.279 26.5464 158.939 26.474 158.939 26.474L158.566 35.2965L152.879 35.5184L153.448 33.7207L157.09 33.252L153.645 33.0992L156.485 24.1253H165.371L163.162 11.5622L160.185 23.3838L156.988 23.5711L162.125 6.30496H165.234L165.235 6.30417ZM191.859 35.5187L188.344 35.4841V18.8358L183.928 28.2154L180.954 28.5836L179.107 23.1569L177.35 17.2615L178.277 22.9488L177.883 35.3849L173.534 35.3439C173.534 34.7844 174.194 6.23634 174.194 6.23634H177.098L182.011 22.5795L181.744 25.6201L187.127 6.23634H190.822L191.859 35.5187ZM200.126 32.7668L207 32.5031V35.4286L195.991 35.5187L196.273 23.8052L195.261 6.27684L206.536 6.25996L206.232 9.12048L198.257 8.97016L200.548 9.43405L199.226 18.6047L205.018 18.8725L205.197 22.0882L200.859 22.1992L200.578 20.5639L200.126 32.7668Z" fill="white"/>
</g>
<defs>
<clipPath id="clip0_3_9">
<rect width="207" height="39" fill="white"/>
</clipPath>
</defs>
</svg>
